<?xml version="1.0" encoding="UTF-8" standalone="no"?>
<svg width="29px" height="65px" viewBox="0 0 29 65" version="1.1" xmlns="http://www.w3.org/2000/svg" xmlns:xlink="http://www.w3.org/1999/xlink" xmlns:sketch="http://www.bohemiancoding.com/sketch/ns">
    <title>Slice 1</title>
    <description>Created with Sketch (http://www.bohemiancoding.com/sketch)</description>
    <defs></defs>
    <g id="Page-1" stroke="none" stroke-width="1" fill="none" fill-rule="evenodd" sketch:type="MSPage">
        <g id="set_thumbnail" sketch:type="MSLayerGroup" transform="translate(1.000000, 1.000000)">
            <g id="Group" sketch:type="MSShapeGroup">
                <path d="M8.8,2 C8.8,2 9,1.7 8.8,1.2 L17.6,1 L18.4,1.7 C18.4,2 18,2.2 18,2.4 L18,2.5 L8.8,2 L8.8,2 Z" id="Shape" fill="#C2C4C6"></path>
                <path d="M18.5,2.8 C18.5,2.8 18.1,2.3 16.6,2.1 C15.1,1.9 9.9,1.9 9.4,2 C8.9,2 8.7,2 8.7,2.4 L8.7,2.9" id="Shape" fill="#EDEFEE"></path>
                <path d="M18.4,1.8 C18.3,2.2 17.5,1.8 16.2,1.6 C14,1.4 10.7,1.4 9.8,1.4 C8.8,1.4 8.7,1.3 8.7,1 L8.7,0.5 C8.7,0.2 9.2,0 10.1,-0.1 C11,-0.2 12.1,-0.2 13.3,-0.2 C14.5,-0.2 16.1,-0.2 17,-0.1 C17.9,0 18.4,0.2 18.4,0.4 L18.4,1.8" id="Shape" fill="#EDEFEE"></path>
                <path d="M13.6,3.2 C10.7,3.2 8.6,3.4 8.5,3.4 C8.4,3.4 8.5,3.3 8.5,3.3 C8.6,3 10.7,2.8 13.6,2.8 C16.5,2.8 18.7,3 18.7,3.3 L18.7,3.4 C18.6,3.4 16.4,3.2 13.6,3.2 L13.6,3.2 Z" id="Shape" fill="#C2C4C6"></path>
                <path d="M18,3 C18,3 18.4,3.3 18.4,3.8 C18.4,4.3 17.9,4.6 17.9,4.6 C17.9,4.6 17.7,6.9 18.4,7.7 C19.1,8.5 21,9.1 22.4,9.7 C24.4,10.6 27.2,13.2 27.2,17.7 L27,55.7 C27,55.7 27.1,60 25.5,61.6 C25.5,61.6 22.9,63.5 13.6,63.5 L13.6,63.5 C4.3,63.5 1.7,61.5 1.7,61.5 C0.2,59.9 0.2,55.6 0.2,55.6 L-1.0658141e-14,17.6 C-1.0658141e-14,13.1 2.8,10.5 4.8,9.6 C6.2,9 8.1,8.3 8.8,7.6 C9.5,6.8 9.3,4.5 9.3,4.5 C9.3,4.5 8.8,4.1 8.8,3.7 C8.8,3.3 9.2,3 9.2,3 L9.2,3 L8.5,3 C8.4,3 8.5,2.9 8.5,2.9 C8.5,2.9 8.6,2.8 8.7,2.8 L8.7,2.8 L8.7,2.3 C8.7,2.2 8.7,2 8.8,2 L8.8,2 C8.8,2 9,1.7 8.8,1.2 L8.8,1.2 C8.8,1.1 8.7,1.1 8.7,1 L8.7,0.5 C8.7,0.2 9.2,8.8817842e-16 10.1,-0.1 C11,-0.2 12.1,-0.2 13.3,-0.2 C14.5,-0.2 16.1,-0.2 17,-0.1 C17.9,8.8817842e-16 18.4,0.2 18.4,0.4 L18.4,1.7 L18.4,1.7 C18.3,2 18,2.3 18,2.4 L18,2.5 C18.3,2.7 18.4,2.8 18.4,2.8 L18.4,2.8 C18.5,2.8 18.6,2.9 18.6,2.9 L18.6,3 C18.6,3 18.4,3 18,3" id="Shape" stroke="#C2C4C6"></path>
            </g>
        </g>
    </g>
</svg>